<svg width="41" height="35" viewBox="0 0 41 35" fill="none" xmlns="http://www.w3.org/2000/svg">
<path fill-rule="evenodd" clip-rule="evenodd" d="M33.2728 5.46546C33.9676 3.78808 34.3252 1.99027 34.3252 0.174683H20.4998H6.67431C6.67431 1.99027 7.03191 3.78808 7.72671 5.46546C8.4215 7.14284 9.43988 8.66695 10.7237 9.95076C12.0075 11.2346 13.5316 12.253 15.209 12.9477C15.7609 13.1764 16.3259 13.3685 16.9003 13.5234L0 13.5234C0 16.2154 0.530243 18.8811 1.56046 21.3683C2.59067 23.8554 4.10067 26.1153 6.00426 28.0189C7.90784 29.9225 10.1677 31.4325 12.6549 32.4627C15.142 33.4929 17.8077 34.0232 20.4998 34.0232C23.1919 34.0232 25.8576 33.4929 28.3448 32.4627C30.8319 31.4325 33.0918 29.9225 34.9954 28.0189C36.899 26.1153 38.409 23.8554 39.4392 21.3683C40.4694 18.8811 40.9996 16.2154 40.9996 13.5234H24.0993C24.6736 13.3685 25.2386 13.1764 25.7905 12.9477C27.4679 12.253 28.992 11.2346 30.2758 9.95076C31.5597 8.66695 32.578 7.14284 33.2728 5.46546Z" fill="#2BC155"/>
</svg>
